{
    "asset" : {
        "generator" : "Khronos glTF Blender I/O v3.2.40",
        "version" : "2.0"
    },
    "scene" : 0,
    "scenes" : [
        {
            "name" : "Scene",
            "nodes" : [
                0
            ]
        }
    ],
    "nodes" : [
        {
            "mesh" : 0,
            "name" : "car",
            "rotation" : [
                1,
                0,
                0,
                0
            ],
            "scale" : [
                -0.9491819739341736,
                -0.9491819739341736,
                -0.7255113124847412
            ],
            "translation" : [
                -0.08545637130737305,
                0,
                2.252285957336426
            ]
        }
    ],
    "materials" : [
        {
            "name" : "Material",
            "pbrMetallicRoughness" : {
                "baseColorFactor" : [
                    0.800000011920929,
                    0.800000011920929,
                    0.800000011920929,
                    1
                ],
                "metallicFactor" : 0,
                "roughnessFactor" : 0.5
            }
        }
    ],
    "meshes" : [
        {
            "name" : "Cube.003",
            "primitives" : [
                {
                    "attributes" : {
                        "POSITION" : 0,
                        "NORMAL" : 1,
                        "TEXCOORD_0" : 2,
                        "COLOR_0" : 3
                    },
                    "indices" : 4,
                    "material" : 0
                }
            ]
        }
    ],
    "accessors" : [
        {
            "bufferView" : 0,
            "componentType" : 5126,
            "count" : 979,
            "max" : [
                5.232640266418457,
                5.837404727935791,
                5.195165634155273
            ],
            "min" : [
                -5.232640266418457,
                -1,
                -20.691862106323242
            ],
            "type" : "VEC3"
        },
        {
            "bufferView" : 1,
            "componentType" : 5126,
            "count" : 979,
            "type" : "VEC3"
        },
        {
            "bufferView" : 2,
            "componentType" : 5126,
            "count" : 979,
            "type" : "VEC2"
        },
        {
            "bufferView" : 3,
            "componentType" : 5123,
            "count" : 979,
            "normalized" : true,
            "type" : "VEC4"
        },
        {
            "bufferView" : 4,
            "componentType" : 5123,
            "count" : 1464,
            "type" : "SCALAR"
        }
    ],
    "bufferViews" : [
        {
            "buffer" : 0,
            "byteLength" : 11748,
            "byteOffset" : 0
        },
        {
            "buffer" : 0,
            "byteLength" : 11748,
            "byteOffset" : 11748
        },
        {
            "buffer" : 0,
            "byteLength" : 7832,
            "byteOffset" : 23496
        },
        {
            "buffer" : 0,
            "byteLength" : 7832,
            "byteOffset" : 31328
        },
        {
            "buffer" : 0,
            "byteLength" : 2928,
            "byteOffset" : 39160
        }
    ],
    "buffers" : [
        {
            "byteLength" : 42088,
            "uri" : "Sedan.bin"
        }
    ]
}
