{
    "asset" : {
        "generator" : "Khronos glTF Blender I/O v1.6.16",
        "version" : "2.0"
    },
    "scene" : 0,
    "scenes" : [
        {
            "name" : "Scene",
            "nodes" : [
                0,
                1,
                2,
                3,
                4,
                5,
                6
            ]
        }
    ],
    "nodes" : [
        {
            "mesh" : 0,
            "name" : "Cube.002",
            "scale" : [
                16.149749755859375,
                25.741884231567383,
                16.495817184448242
            ],
            "translation" : [
                0,
                -1.0345983505249023,
                -1.1982078552246094
            ]
        },
        {
            "mesh" : 1,
            "name" : "Cube",
            "scale" : [
                16.708879470825195,
                3.5995209217071533,
                180.52284240722656
            ],
            "translation" : [
                -0.3595794439315796,
                0.6567516326904297,
                16.432741165161133
            ]
        },
        {
            "mesh" : 2,
            "name" : "Cube.012",
            "scale" : [
                16.149749755859375,
                78.9000015258789,
                16.495817184448242
            ],
            "translation" : [
                -36.99684143066406,
                -6.479814052581787,
                34.41474151611328
            ]
        },
        {
            "mesh" : 3,
            "name" : "Cube.013",
            "scale" : [
                16.149749755859375,
                78.9000015258789,
                16.495817184448242
            ],
            "translation" : [
                -37.6260871887207,
                -6.479814052581787,
                -1.1982078552246094
            ]
        },
        {
            "mesh" : 4,
            "name" : "Cube.001",
            "scale" : [
                16.149749755859375,
                25.741884231567383,
                16.495817184448242
            ],
            "translation" : [
                0,
                -1.0345983505249023,
                34.487396240234375
            ]
        },
        {
            "mesh" : 5,
            "name" : "Cube.003",
            "scale" : [
                19.79892349243164,
                1,
                1
            ],
            "translation" : [
                -18.75841522216797,
                -0.8267881274223328,
                22.984582901000977
            ]
        },
        {
            "mesh" : 6,
            "name" : "Cube.004",
            "scale" : [
                19.79892349243164,
                1,
                1
            ],
            "translation" : [
                -18.75841522216797,
                -0.8267881274223328,
                9.620292663574219
            ]
        }
    ],
    "materials" : [
        {
            "name" : "Material.005",
            "pbrMetallicRoughness" : {
                "baseColorTexture" : {
                    "index" : 0
                },
                "metallicFactor" : 0
            }
        }
    ],
    "meshes" : [
        {
            "name" : "Cube.023",
            "primitives" : [
                {
                    "attributes" : {
                        "POSITION" : 0,
                        "NORMAL" : 1,
                        "TEXCOORD_0" : 2
                    },
                    "indices" : 3,
                    "material" : 0
                }
            ]
        },
        {
            "name" : "Cube.024",
            "primitives" : [
                {
                    "attributes" : {
                        "POSITION" : 4,
                        "NORMAL" : 5,
                        "TEXCOORD_0" : 6
                    },
                    "indices" : 7,
                    "material" : 0
                }
            ]
        },
        {
            "name" : "Cube.034",
            "primitives" : [
                {
                    "attributes" : {
                        "POSITION" : 8,
                        "NORMAL" : 9,
                        "TEXCOORD_0" : 10
                    },
                    "indices" : 3,
                    "material" : 0
                }
            ]
        },
        {
            "name" : "Cube.035",
            "primitives" : [
                {
                    "attributes" : {
                        "POSITION" : 11,
                        "NORMAL" : 12,
                        "TEXCOORD_0" : 13,
                        "COLOR_0" : 14
                    },
                    "indices" : 3,
                    "material" : 0
                }
            ]
        },
        {
            "name" : "Cube.036",
            "primitives" : [
                {
                    "attributes" : {
                        "POSITION" : 15,
                        "NORMAL" : 16,
                        "TEXCOORD_0" : 17
                    },
                    "indices" : 3,
                    "material" : 0
                }
            ]
        },
        {
            "name" : "Cube",
            "primitives" : [
                {
                    "attributes" : {
                        "POSITION" : 18,
                        "NORMAL" : 19,
                        "TEXCOORD_0" : 20
                    },
                    "indices" : 3,
                    "material" : 0
                }
            ]
        },
        {
            "name" : "Cube.001",
            "primitives" : [
                {
                    "attributes" : {
                        "POSITION" : 21,
                        "NORMAL" : 22,
                        "TEXCOORD_0" : 23
                    },
                    "indices" : 3,
                    "material" : 0
                }
            ]
        }
    ],
    "textures" : [
        {
            "sampler" : 0,
            "source" : 0
        }
    ],
    "images" : [
        {
            "bufferView" : 4,
            "mimeType" : "image/png",
            "name" : "woodpix"
        }
    ],
    "accessors" : [
        {
            "bufferView" : 0,
            "componentType" : 5126,
            "count" : 24,
            "max" : [
                0.10000000149011612,
                0.10000000149011612,
                0.10000000149011612
            ],
            "min" : [
                -0.10000000149011612,
                -0.10000000149011612,
                -0.10000000149011612
            ],
            "type" : "VEC3"
        },
        {
            "bufferView" : 1,
            "componentType" : 5126,
            "count" : 24,
            "type" : "VEC3"
        },
        {
            "bufferView" : 2,
            "componentType" : 5126,
            "count" : 24,
            "type" : "VEC2"
        },
        {
            "bufferView" : 3,
            "componentType" : 5123,
            "count" : 36,
            "type" : "SCALAR"
        },
        {
            "bufferView" : 5,
            "componentType" : 5126,
            "count" : 240,
            "max" : [
                0.10000000149011612,
                0.10000000149011612,
                0.10000000894069672
            ],
            "min" : [
                -2.2576186656951904,
                -0.10000000149011612,
                -0.10000000149011612
            ],
            "type" : "VEC3"
        },
        {
            "bufferView" : 6,
            "componentType" : 5126,
            "count" : 240,
            "type" : "VEC3"
        },
        {
            "bufferView" : 7,
            "componentType" : 5126,
            "count" : 240,
            "type" : "VEC2"
        },
        {
            "bufferView" : 8,
            "componentType" : 5123,
            "count" : 360,
            "type" : "SCALAR"
        },
        {
            "bufferView" : 9,
            "componentType" : 5126,
            "count" : 24,
            "max" : [
                0.10000000149011612,
                0.10000000149011612,
                0.10000000149011612
            ],
            "min" : [
                -0.10000000149011612,
                -0.26476553082466125,
                -0.10000000149011612
            ],
            "type" : "VEC3"
        },
        {
            "bufferView" : 10,
            "componentType" : 5126,
            "count" : 24,
            "type" : "VEC3"
        },
        {
            "bufferView" : 11,
            "componentType" : 5126,
            "count" : 24,
            "type" : "VEC2"
        },
        {
            "bufferView" : 12,
            "componentType" : 5126,
            "count" : 24,
            "max" : [
                0.10000000149011612,
                0.10000000149011612,
                0.10000000149011612
            ],
            "min" : [
                -0.10000000149011612,
                -0.26476553082466125,
                -0.10000000149011612
            ],
            "type" : "VEC3"
        },
        {
            "bufferView" : 13,
            "componentType" : 5126,
            "count" : 24,
            "type" : "VEC3"
        },
        {
            "bufferView" : 14,
            "componentType" : 5126,
            "count" : 24,
            "type" : "VEC2"
        },
        {
            "bufferView" : 15,
            "componentType" : 5123,
            "count" : 24,
            "normalized" : true,
            "type" : "VEC4"
        },
        {
            "bufferView" : 16,
            "componentType" : 5126,
            "count" : 24,
            "max" : [
                0.10000000149011612,
                0.10000000149011612,
                0.10000000149011612
            ],
            "min" : [
                -0.10000000149011612,
                -0.10000000149011612,
                -0.10000000149011612
            ],
            "type" : "VEC3"
        },
        {
            "bufferView" : 17,
            "componentType" : 5126,
            "count" : 24,
            "type" : "VEC3"
        },
        {
            "bufferView" : 18,
            "componentType" : 5126,
            "count" : 24,
            "type" : "VEC2"
        },
        {
            "bufferView" : 19,
            "componentType" : 5126,
            "count" : 24,
            "max" : [
                1,
                1,
                1
            ],
            "min" : [
                -1,
                -1,
                -1
            ],
            "type" : "VEC3"
        },
        {
            "bufferView" : 20,
            "componentType" : 5126,
            "count" : 24,
            "type" : "VEC3"
        },
        {
            "bufferView" : 21,
            "componentType" : 5126,
            "count" : 24,
            "type" : "VEC2"
        },
        {
            "bufferView" : 22,
            "componentType" : 5126,
            "count" : 24,
            "max" : [
                1,
                1,
                1
            ],
            "min" : [
                -1,
                -1,
                -1
            ],
            "type" : "VEC3"
        },
        {
            "bufferView" : 23,
            "componentType" : 5126,
            "count" : 24,
            "type" : "VEC3"
        },
        {
            "bufferView" : 24,
            "componentType" : 5126,
            "count" : 24,
            "type" : "VEC2"
        }
    ],
    "bufferViews" : [
        {
            "buffer" : 0,
            "byteLength" : 288,
            "byteOffset" : 0
        },
        {
            "buffer" : 0,
            "byteLength" : 288,
            "byteOffset" : 288
        },
        {
            "buffer" : 0,
            "byteLength" : 192,
            "byteOffset" : 576
        },
        {
            "buffer" : 0,
            "byteLength" : 72,
            "byteOffset" : 768
        },
        {
            "buffer" : 0,
            "byteLength" : 9731,
            "byteOffset" : 840
        },
        {
            "buffer" : 0,
            "byteLength" : 2880,
            "byteOffset" : 10572
        },
        {
            "buffer" : 0,
            "byteLength" : 2880,
            "byteOffset" : 13452
        },
        {
            "buffer" : 0,
            "byteLength" : 1920,
            "byteOffset" : 16332
        },
        {
            "buffer" : 0,
            "byteLength" : 720,
            "byteOffset" : 18252
        },
        {
            "buffer" : 0,
            "byteLength" : 288,
            "byteOffset" : 18972
        },
        {
            "buffer" : 0,
            "byteLength" : 288,
            "byteOffset" : 19260
        },
        {
            "buffer" : 0,
            "byteLength" : 192,
            "byteOffset" : 19548
        },
        {
            "buffer" : 0,
            "byteLength" : 288,
            "byteOffset" : 19740
        },
        {
            "buffer" : 0,
            "byteLength" : 288,
            "byteOffset" : 20028
        },
        {
            "buffer" : 0,
            "byteLength" : 192,
            "byteOffset" : 20316
        },
        {
            "buffer" : 0,
            "byteLength" : 192,
            "byteOffset" : 20508
        },
        {
            "buffer" : 0,
            "byteLength" : 288,
            "byteOffset" : 20700
        },
        {
            "buffer" : 0,
            "byteLength" : 288,
            "byteOffset" : 20988
        },
        {
            "buffer" : 0,
            "byteLength" : 192,
            "byteOffset" : 21276
        },
        {
            "buffer" : 0,
            "byteLength" : 288,
            "byteOffset" : 21468
        },
        {
            "buffer" : 0,
            "byteLength" : 288,
            "byteOffset" : 21756
        },
        {
            "buffer" : 0,
            "byteLength" : 192,
            "byteOffset" : 22044
        },
        {
            "buffer" : 0,
            "byteLength" : 288,
            "byteOffset" : 22236
        },
        {
            "buffer" : 0,
            "byteLength" : 288,
            "byteOffset" : 22524
        },
        {
            "buffer" : 0,
            "byteLength" : 192,
            "byteOffset" : 22812
        }
    ],
    "samplers" : [
        {
            "magFilter" : 9729,
            "minFilter" : 9987
        }
    ],
    "buffers" : [
        {
            "byteLength" : 23004,
            "uri" : "data:application/octet-stream;base64,"
        }
    ]
}
