{
    "asset" : {
        "generator" : "Khronos glTF Blender I/O v1.6.16",
        "version" : "2.0"
    },
    "scene" : 0,
    "scenes" : [
        {
            "name" : "Scene",
            "nodes" : [
                0
            ]
        }
    ],
    "nodes" : [
        {
            "mesh" : 0,
            "name" : "Plane",
            "rotation" : [
                0.7071068286895752,
                0,
                0,
                0.7071068286895752
            ],
            "scale" : [
                30.502037048339844,
                13.302239418029785,
                15.52988052368164
            ],
            "translation" : [
                0.7799166440963745,
                44.01220703125,
                28.405881881713867
            ]
        }
    ],
    "meshes" : [
        {
            "name" : "Plane",
            "primitives" : [
                {
                    "attributes" : {
                        "POSITION" : 0,
                        "NORMAL" : 1,
                        "TEXCOORD_0" : 2
                    },
                    "indices" : 3
                }
            ]
        }
    ],
    "accessors" : [
        {
            "bufferView" : 0,
            "componentType" : 5126,
            "count" : 128,
            "max" : [
                1.1720677614212036,
                0.3419683575630188,
                3.2343406677246094
            ],
            "min" : [
                -1.1720677614212036,
                -4.619178295135498,
                -1.0602071285247803
            ],
            "type" : "VEC3"
        },
        {
            "bufferView" : 1,
            "componentType" : 5126,
            "count" : 128,
            "type" : "VEC3"
        },
        {
            "bufferView" : 2,
            "componentType" : 5126,
            "count" : 128,
            "type" : "VEC2"
        },
        {
            "bufferView" : 3,
            "componentType" : 5123,
            "count" : 192,
            "type" : "SCALAR"
        }
    ],
    "bufferViews" : [
        {
            "buffer" : 0,
            "byteLength" : 1536,
            "byteOffset" : 0
        },
        {
            "buffer" : 0,
            "byteLength" : 1536,
            "byteOffset" : 1536
        },
        {
            "buffer" : 0,
            "byteLength" : 1024,
            "byteOffset" : 3072
        },
        {
            "buffer" : 0,
            "byteLength" : 384,
            "byteOffset" : 4096
        }
    ],
    "buffers" : [
        {
            "byteLength" : 4480,
            "uri" : "data:application/octet-stream;base64,"
        }
    ]
}
