{
    "asset" : {
        "generator" : "Khronos glTF Blender I/O v3.2.40",
        "version" : "2.0"
    },
    "scene" : 0,
    "scenes" : [
        {
            "name" : "Scene",
            "nodes" : [
                0
            ]
        }
    ],
    "nodes" : [
        {
            "mesh" : 0,
            "name" : "Cylinder",
            "rotation" : [
                0,
                -0.7071068286895752,
                -0.7071068286895752,
                0
            ],
            "scale" : [
                -6.6210832595825195,
                -3.206618309020996,
                -6.6210832595825195
            ]
        }
    ],
    "meshes" : [
        {
            "name" : "Cylinder",
            "primitives" : [
                {
                    "attributes" : {
                        "POSITION" : 0,
                        "NORMAL" : 1,
                        "TEXCOORD_0" : 2
                    },
                    "indices" : 3
                }
            ]
        }
    ],
    "accessors" : [
        {
            "bufferView" : 0,
            "componentType" : 5126,
            "count" : 482,
            "max" : [
                1,
                0.32910478115081787,
                1.0000001192092896
            ],
            "min" : [
                -1,
                -0.30799683928489685,
                -1.0000001192092896
            ],
            "type" : "VEC3"
        },
        {
            "bufferView" : 1,
            "componentType" : 5126,
            "count" : 482,
            "type" : "VEC3"
        },
        {
            "bufferView" : 2,
            "componentType" : 5126,
            "count" : 482,
            "type" : "VEC2"
        },
        {
            "bufferView" : 3,
            "componentType" : 5123,
            "count" : 840,
            "type" : "SCALAR"
        }
    ],
    "bufferViews" : [
        {
            "buffer" : 0,
            "byteLength" : 5784,
            "byteOffset" : 0
        },
        {
            "buffer" : 0,
            "byteLength" : 5784,
            "byteOffset" : 5784
        },
        {
            "buffer" : 0,
            "byteLength" : 3856,
            "byteOffset" : 11568
        },
        {
            "buffer" : 0,
            "byteLength" : 1680,
            "byteOffset" : 15424
        }
    ],
    "buffers" : [
        {
            "byteLength" : 17104,
            "uri" : "data:application/octet-stream;base64,"
        }
    ]
}
