{
    "asset" : {
        "generator" : "Khronos glTF Blender I/O v3.2.40",
        "version" : "2.0"
    },
    "scene" : 0,
    "scenes" : [
        {
            "name" : "Scene",
            "nodes" : [
                0
            ]
        }
    ],
    "nodes" : [
        {
            "mesh" : 0,
            "name" : "Cube",
            "scale" : [
                3.1214208602905273,
                3.1214208602905273,
                3.1214208602905273
            ]
        }
    ],
    "meshes" : [
        {
            "name" : "Cube.003",
            "primitives" : [
                {
                    "attributes" : {
                        "POSITION" : 0,
                        "NORMAL" : 1,
                        "TEXCOORD_0" : 2
                    },
                    "indices" : 3
                }
            ]
        }
    ],
    "accessors" : [
        {
            "bufferView" : 0,
            "componentType" : 5126,
            "count" : 403,
            "max" : [
                1.0289775133132935,
                1.5077214241027832,
                1.722623348236084
            ],
            "min" : [
                -1.0289775133132935,
                -1.4876716136932373,
                -1.2628865242004395
            ],
            "type" : "VEC3"
        },
        {
            "bufferView" : 1,
            "componentType" : 5126,
            "count" : 403,
            "type" : "VEC3"
        },
        {
            "bufferView" : 2,
            "componentType" : 5126,
            "count" : 403,
            "type" : "VEC2"
        },
        {
            "bufferView" : 3,
            "componentType" : 5123,
            "count" : 684,
            "type" : "SCALAR"
        }
    ],
    "bufferViews" : [
        {
            "buffer" : 0,
            "byteLength" : 4836,
            "byteOffset" : 0
        },
        {
            "buffer" : 0,
            "byteLength" : 4836,
            "byteOffset" : 4836
        },
        {
            "buffer" : 0,
            "byteLength" : 3224,
            "byteOffset" : 9672
        },
        {
            "buffer" : 0,
            "byteLength" : 1368,
            "byteOffset" : 12896
        }
    ],
    "buffers" : [
        {
            "byteLength" : 14264,
            "uri" : "data:application/octet-stream;base64,"
        }
    ]
}
