{
    "asset" : {
        "generator" : "Khronos glTF Blender I/O v3.2.40",
        "version" : "2.0"
    },
    "scene" : 0,
    "scenes" : [
        {
            "name" : "Scene",
            "nodes" : [
                0,
                1
            ]
        }
    ],
    "nodes" : [
        {
            "mesh" : 0,
            "name" : "Cylinder",
            "rotation" : [
                0,
                0.7071068286895752,
                0.7071068286895752,
                0
            ],
            "scale" : [
                -6.621084690093994,
                -3.2066187858581543,
                -6.621084213256836
            ]
        },
        {
            "mesh" : 1,
            "name" : "Cube"
        }
    ],
    "meshes" : [
        {
            "name" : "Cylinder",
            "primitives" : [
                {
                    "attributes" : {
                        "POSITION" : 0,
                        "NORMAL" : 1,
                        "TEXCOORD_0" : 2
                    },
                    "indices" : 3
                }
            ]
        },
        {
            "name" : "Cube.003",
            "primitives" : [
                {
                    "attributes" : {
                        "POSITION" : 4,
                        "NORMAL" : 5,
                        "TEXCOORD_0" : 6
                    },
                    "indices" : 7
                }
            ]
        }
    ],
    "accessors" : [
        {
            "bufferView" : 0,
            "componentType" : 5126,
            "count" : 782,
            "max" : [
                1,
                0.32910478115081787,
                1.0000001192092896
            ],
            "min" : [
                -1,
                -0.30799683928489685,
                -1.0000001192092896
            ],
            "type" : "VEC3"
        },
        {
            "bufferView" : 1,
            "componentType" : 5126,
            "count" : 782,
            "type" : "VEC3"
        },
        {
            "bufferView" : 2,
            "componentType" : 5126,
            "count" : 782,
            "type" : "VEC2"
        },
        {
            "bufferView" : 3,
            "componentType" : 5123,
            "count" : 840,
            "type" : "SCALAR"
        },
        {
            "bufferView" : 4,
            "componentType" : 5126,
            "count" : 210,
            "max" : [
                0,
                1.5077214241027832,
                1.722623348236084
            ],
            "min" : [
                -1.0289775133132935,
                -1.4876716136932373,
                -1.2628865242004395
            ],
            "type" : "VEC3"
        },
        {
            "bufferView" : 5,
            "componentType" : 5126,
            "count" : 210,
            "type" : "VEC3"
        },
        {
            "bufferView" : 6,
            "componentType" : 5126,
            "count" : 210,
            "type" : "VEC2"
        },
        {
            "bufferView" : 7,
            "componentType" : 5123,
            "count" : 360,
            "type" : "SCALAR"
        }
    ],
    "bufferViews" : [
        {
            "buffer" : 0,
            "byteLength" : 9384,
            "byteOffset" : 0
        },
        {
            "buffer" : 0,
            "byteLength" : 9384,
            "byteOffset" : 9384
        },
        {
            "buffer" : 0,
            "byteLength" : 6256,
            "byteOffset" : 18768
        },
        {
            "buffer" : 0,
            "byteLength" : 1680,
            "byteOffset" : 25024
        },
        {
            "buffer" : 0,
            "byteLength" : 2520,
            "byteOffset" : 26704
        },
        {
            "buffer" : 0,
            "byteLength" : 2520,
            "byteOffset" : 29224
        },
        {
            "buffer" : 0,
            "byteLength" : 1680,
            "byteOffset" : 31744
        },
        {
            "buffer" : 0,
            "byteLength" : 720,
            "byteOffset" : 33424
        }
    ],
    "buffers" : [
        {
            "byteLength" : 34144,
            "uri" : "Piggy.bin"
        }
    ]
}
