{
    "asset" : {
        "generator" : "Khronos glTF Blender I/O v1.5.17",
        "version" : "2.0"
    },
    "scene" : 0,
    "scenes" : [
        {
            "name" : "Scene",
            "nodes" : [
                0
            ]
        }
    ],
    "nodes" : [
        {
            "mesh" : 0,
            "name" : "Plane",
            "scale" : [
                29.961715698242188,
                1,
                29.961715698242188
            ],
            "translation" : [
                0.16070395708084106,
                0.44186878204345703,
                -0.9236907958984375
            ]
        }
    ],
    "meshes" : [
        {
            "name" : "Plane",
            "primitives" : [
                {
                    "attributes" : {
                        "POSITION" : 0,
                        "NORMAL" : 1,
                        "TEXCOORD_0" : 2
                    },
                    "indices" : 3
                }
            ]
        }
    ],
    "accessors" : [
        {
            "bufferView" : 0,
            "componentType" : 5126,
            "count" : 118,
            "max" : [
                1.088258147239685,
                2.543806314468384,
                1.0704147815704346
            ],
            "min" : [
                -1.059601068496704,
                -1.8271863460540771,
                -1.0651202201843262
            ],
            "type" : "VEC3"
        },
        {
            "bufferView" : 1,
            "componentType" : 5126,
            "count" : 118,
            "type" : "VEC3"
        },
        {
            "bufferView" : 2,
            "componentType" : 5126,
            "count" : 118,
            "type" : "VEC2"
        },
        {
            "bufferView" : 3,
            "componentType" : 5123,
            "count" : 192,
            "type" : "SCALAR"
        }
    ],
    "bufferViews" : [
        {
            "buffer" : 0,
            "byteLength" : 1416,
            "byteOffset" : 0
        },
        {
            "buffer" : 0,
            "byteLength" : 1416,
            "byteOffset" : 1416
        },
        {
            "buffer" : 0,
            "byteLength" : 944,
            "byteOffset" : 2832
        },
        {
            "buffer" : 0,
            "byteLength" : 384,
            "byteOffset" : 3776
        }
    ],
    "buffers" : [
        {
            "byteLength" : 4160,
            "uri" : "data:application/octet-stream;base64,"
        }
    ]
}
