{
    "asset" : {
        "generator" : "Khronos glTF Blender I/O v1.5.17",
        "version" : "2.0"
    },
    "scene" : 0,
    "scenes" : [
        {
            "name" : "Scene",
            "nodes" : [
                0,
                1,
                2,
                3,
                4
            ]
        }
    ],
    "nodes" : [
        {
            "mesh" : 0,
            "name" : "elevator",
            "scale" : [
                18.97608184814453,
                -0.24272377789020538,
                18.97608184814453
            ],
            "translation" : [
                0,
                -0.792236328125,
                0
            ]
        },
        {
            "mesh" : 1,
            "name" : "Cube",
            "scale" : [
                1,
                11.247114181518555,
                1
            ],
            "translation" : [
                16.026945114135742,
                -13.282715797424316,
                -15.11272144317627
            ]
        },
        {
            "mesh" : 2,
            "name" : "Cube.001",
            "scale" : [
                1,
                11.247114181518555,
                1
            ],
            "translation" : [
                -15.89012336730957,
                -13.282715797424316,
                -15.11272144317627
            ]
        },
        {
            "mesh" : 3,
            "name" : "Cube.002",
            "scale" : [
                1,
                11.247114181518555,
                1
            ],
            "translation" : [
                -15.89012336730957,
                -13.282715797424316,
                16.161083221435547
            ]
        },
        {
            "mesh" : 4,
            "name" : "Cube.003",
            "scale" : [
                1,
                11.247114181518555,
                1
            ],
            "translation" : [
                16.322965621948242,
                -13.282715797424316,
                16.161083221435547
            ]
        }
    ],
    "materials" : [
        {
            "doubleSided" : true,
            "name" : "Material.005",
            "pbrMetallicRoughness" : {
                "baseColorTexture" : {
                    "index" : 0
                },
                "metallicFactor" : 0.15441176295280457
            }
        }
    ],
    "meshes" : [
        {
            "name" : "Cube.001",
            "primitives" : [
                {
                    "attributes" : {
                        "POSITION" : 0,
                        "NORMAL" : 1,
                        "TEXCOORD_0" : 2
                    },
                    "indices" : 3,
                    "material" : 0
                }
            ]
        },
        {
            "name" : "Cube.003",
            "primitives" : [
                {
                    "attributes" : {
                        "POSITION" : 4,
                        "NORMAL" : 5,
                        "TEXCOORD_0" : 6
                    },
                    "indices" : 7,
                    "material" : 0
                }
            ]
        },
        {
            "name" : "Cube.004",
            "primitives" : [
                {
                    "attributes" : {
                        "POSITION" : 8,
                        "NORMAL" : 9,
                        "TEXCOORD_0" : 10
                    },
                    "indices" : 7,
                    "material" : 0
                }
            ]
        },
        {
            "name" : "Cube.005",
            "primitives" : [
                {
                    "attributes" : {
                        "POSITION" : 11,
                        "NORMAL" : 12,
                        "TEXCOORD_0" : 13
                    },
                    "indices" : 7,
                    "material" : 0
                }
            ]
        },
        {
            "name" : "Cube.006",
            "primitives" : [
                {
                    "attributes" : {
                        "POSITION" : 14,
                        "NORMAL" : 15,
                        "TEXCOORD_0" : 16
                    },
                    "indices" : 7,
                    "material" : 0
                }
            ]
        }
    ],
    "textures" : [
        {
            "sampler" : 0,
            "source" : 0
        }
    ],
    "images" : [
        {
            "bufferView" : 4,
            "mimeType" : "image/png",
            "name" : "checkplat"
        }
    ],
    "accessors" : [
        {
            "bufferView" : 0,
            "componentType" : 5126,
            "count" : 48,
            "max" : [
                1,
                103.99774932861328,
                1
            ],
            "min" : [
                -1,
                -1,
                -1
            ],
            "type" : "VEC3"
        },
        {
            "bufferView" : 1,
            "componentType" : 5126,
            "count" : 48,
            "type" : "VEC3"
        },
        {
            "bufferView" : 2,
            "componentType" : 5126,
            "count" : 48,
            "type" : "VEC2"
        },
        {
            "bufferView" : 3,
            "componentType" : 5123,
            "count" : 72,
            "type" : "SCALAR"
        },
        {
            "bufferView" : 5,
            "componentType" : 5126,
            "count" : 56,
            "max" : [
                1.8342844247817993,
                1.1036241054534912,
                1.8342835903167725
            ],
            "min" : [
                -1.8342844247817993,
                -1.1069844961166382,
                -1.8342852592468262
            ],
            "type" : "VEC3"
        },
        {
            "bufferView" : 6,
            "componentType" : 5126,
            "count" : 56,
            "type" : "VEC3"
        },
        {
            "bufferView" : 7,
            "componentType" : 5126,
            "count" : 56,
            "type" : "VEC2"
        },
        {
            "bufferView" : 8,
            "componentType" : 5123,
            "count" : 84,
            "type" : "SCALAR"
        },
        {
            "bufferView" : 9,
            "componentType" : 5126,
            "count" : 56,
            "max" : [
                1.8342844247817993,
                1.1036241054534912,
                1.8342835903167725
            ],
            "min" : [
                -1.8342844247817993,
                -1.1069844961166382,
                -1.8342852592468262
            ],
            "type" : "VEC3"
        },
        {
            "bufferView" : 10,
            "componentType" : 5126,
            "count" : 56,
            "type" : "VEC3"
        },
        {
            "bufferView" : 11,
            "componentType" : 5126,
            "count" : 56,
            "type" : "VEC2"
        },
        {
            "bufferView" : 12,
            "componentType" : 5126,
            "count" : 56,
            "max" : [
                1.8342844247817993,
                1.1036241054534912,
                1.8342835903167725
            ],
            "min" : [
                -1.8342844247817993,
                -1.1069844961166382,
                -1.8342852592468262
            ],
            "type" : "VEC3"
        },
        {
            "bufferView" : 13,
            "componentType" : 5126,
            "count" : 56,
            "type" : "VEC3"
        },
        {
            "bufferView" : 14,
            "componentType" : 5126,
            "count" : 56,
            "type" : "VEC2"
        },
        {
            "bufferView" : 15,
            "componentType" : 5126,
            "count" : 56,
            "max" : [
                1.8342844247817993,
                1.1036241054534912,
                1.8342835903167725
            ],
            "min" : [
                -1.8342844247817993,
                -1.1069844961166382,
                -1.8342852592468262
            ],
            "type" : "VEC3"
        },
        {
            "bufferView" : 16,
            "componentType" : 5126,
            "count" : 56,
            "type" : "VEC3"
        },
        {
            "bufferView" : 17,
            "componentType" : 5126,
            "count" : 56,
            "type" : "VEC2"
        }
    ],
    "bufferViews" : [
        {
            "buffer" : 0,
            "byteLength" : 576,
            "byteOffset" : 0
        },
        {
            "buffer" : 0,
            "byteLength" : 576,
            "byteOffset" : 576
        },
        {
            "buffer" : 0,
            "byteLength" : 384,
            "byteOffset" : 1152
        },
        {
            "buffer" : 0,
            "byteLength" : 144,
            "byteOffset" : 1536
        },
        {
            "buffer" : 0,
            "byteLength" : 1906,
            "byteOffset" : 1680
        },
        {
            "buffer" : 0,
            "byteLength" : 672,
            "byteOffset" : 3588
        },
        {
            "buffer" : 0,
            "byteLength" : 672,
            "byteOffset" : 4260
        },
        {
            "buffer" : 0,
            "byteLength" : 448,
            "byteOffset" : 4932
        },
        {
            "buffer" : 0,
            "byteLength" : 168,
            "byteOffset" : 5380
        },
        {
            "buffer" : 0,
            "byteLength" : 672,
            "byteOffset" : 5548
        },
        {
            "buffer" : 0,
            "byteLength" : 672,
            "byteOffset" : 6220
        },
        {
            "buffer" : 0,
            "byteLength" : 448,
            "byteOffset" : 6892
        },
        {
            "buffer" : 0,
            "byteLength" : 672,
            "byteOffset" : 7340
        },
        {
            "buffer" : 0,
            "byteLength" : 672,
            "byteOffset" : 8012
        },
        {
            "buffer" : 0,
            "byteLength" : 448,
            "byteOffset" : 8684
        },
        {
            "buffer" : 0,
            "byteLength" : 672,
            "byteOffset" : 9132
        },
        {
            "buffer" : 0,
            "byteLength" : 672,
            "byteOffset" : 9804
        },
        {
            "buffer" : 0,
            "byteLength" : 448,
            "byteOffset" : 10476
        }
    ],
    "samplers" : [
        {
            "magFilter" : 9729,
            "minFilter" : 9987
        }
    ],
    "buffers" : [
        {
            "byteLength" : 10924,
            "uri" : "data:application/octet-stream;base64,"
        }
    ]
}
