{
    "asset" : {
        "generator" : "Khronos glTF Blender I/O v3.2.40",
        "version" : "2.0"
    },
    "scene" : 0,
    "scenes" : [
        {
            "name" : "Scene",
            "nodes" : [
                0
            ]
        }
    ],
    "nodes" : [
        {
            "mesh" : 0,
            "name" : "Cylinder",
            "rotation" : [
                0,
                0,
                -0.7071068286895752,
                0.7071067094802856
            ],
            "scale" : [
                1.7465707063674927,
                0.20966583490371704,
                1.7465704679489136
            ],
            "translation" : [
                0.013010025024414062,
                -0.8429845571517944,
                0.002721071243286133
            ]
        }
    ],
    "materials" : [
        {
            "doubleSided" : true,
            "name" : "ruedamaterial",
            "pbrMetallicRoughness" : {
                "metallicFactor" : 0,
                "roughnessFactor" : 0.5
            }
        }
    ],
    "meshes" : [
        {
            "name" : "Cylinder",
            "primitives" : [
                {
                    "attributes" : {
                        "POSITION" : 0,
                        "NORMAL" : 1,
                        "TEXCOORD_0" : 2
                    },
                    "indices" : 3,
                    "material" : 0
                }
            ]
        }
    ],
    "accessors" : [
        {
            "bufferView" : 0,
            "componentType" : 5126,
            "count" : 1441,
            "max" : [
                0.5405727624893188,
                0.4235392212867737,
                1.0139119625091553
            ],
            "min" : [
                -1.4872511625289917,
                -2.545743465423584,
                -1.0139119625091553
            ],
            "type" : "VEC3"
        },
        {
            "bufferView" : 1,
            "componentType" : 5126,
            "count" : 1441,
            "type" : "VEC3"
        },
        {
            "bufferView" : 2,
            "componentType" : 5126,
            "count" : 1441,
            "type" : "VEC2"
        },
        {
            "bufferView" : 3,
            "componentType" : 5123,
            "count" : 1515,
            "type" : "SCALAR"
        }
    ],
    "bufferViews" : [
        {
            "buffer" : 0,
            "byteLength" : 17292,
            "byteOffset" : 0
        },
        {
            "buffer" : 0,
            "byteLength" : 17292,
            "byteOffset" : 17292
        },
        {
            "buffer" : 0,
            "byteLength" : 11528,
            "byteOffset" : 34584
        },
        {
            "buffer" : 0,
            "byteLength" : 3030,
            "byteOffset" : 46112
        }
    ],
    "buffers" : [
        {
            "byteLength" : 49144,
            "uri" : "data:application/octet-stream;base64,"
        }
    ]
}
