{
    "asset" : {
        "generator" : "Khronos glTF Blender I/O v1.5.17",
        "version" : "2.0"
    },
    "scene" : 0,
    "scenes" : [
        {
            "name" : "Scene",
            "nodes" : [
                0
            ]
        }
    ],
    "nodes" : [
        {
            "mesh" : 0,
            "name" : "Cylinder",
            "rotation" : [
                0,
                0,
                -0.7071068286895752,
                0.7071068286895752
            ],
            "scale" : [
                1.7465704679489136,
                0.20966580510139465,
                1.7465704679489136
            ],
            "translation" : [
                0.013010025024414062,
                -0.8429845571517944,
                0.002721071243286133
            ]
        }
    ],
    "materials" : [
        {
            "doubleSided" : true,
            "name" : "ruedamaterial",
            "pbrMetallicRoughness" : {
                "baseColorTexture" : {
                    "index" : 0
                },
                "metallicFactor" : 0,
                "roughnessFactor" : 0.5
            }
        }
    ],
    "meshes" : [
        {
            "name" : "Cylinder",
            "primitives" : [
                {
                    "attributes" : {
                        "POSITION" : 0,
                        "NORMAL" : 1,
                        "TEXCOORD_0" : 2
                    },
                    "indices" : 3,
                    "material" : 0
                }
            ]
        }
    ],
    "textures" : [
        {
            "sampler" : 0,
            "source" : 0
        }
    ],
    "images" : [
        {
            "bufferView" : 4,
            "mimeType" : "image/png",
            "name" : "rueda"
        }
    ],
    "accessors" : [
        {
            "bufferView" : 0,
            "componentType" : 5126,
            "count" : 990,
            "max" : [
                1.0139119625091553,
                1.2299715280532837,
                1.0139119625091553
            ],
            "min" : [
                -1.0139119625091553,
                -1.7393110990524292,
                -1.0139119625091553
            ],
            "type" : "VEC3"
        },
        {
            "bufferView" : 1,
            "componentType" : 5126,
            "count" : 990,
            "type" : "VEC3"
        },
        {
            "bufferView" : 2,
            "componentType" : 5126,
            "count" : 990,
            "type" : "VEC2"
        },
        {
            "bufferView" : 3,
            "componentType" : 5123,
            "count" : 1512,
            "type" : "SCALAR"
        }
    ],
    "bufferViews" : [
        {
            "buffer" : 0,
            "byteLength" : 11880,
            "byteOffset" : 0
        },
        {
            "buffer" : 0,
            "byteLength" : 11880,
            "byteOffset" : 11880
        },
        {
            "buffer" : 0,
            "byteLength" : 7920,
            "byteOffset" : 23760
        },
        {
            "buffer" : 0,
            "byteLength" : 3024,
            "byteOffset" : 31680
        },
        {
            "buffer" : 0,
            "byteLength" : 1733,
            "byteOffset" : 34704
        }
    ],
    "samplers" : [
        {
            "magFilter" : 9729,
            "minFilter" : 9987
        }
    ],
    "buffers" : [
        {
            "byteLength" : 36440,
            "uri" : "data:application/octet-stream;base64,"
        }
    ]
}
