{
    "asset" : {
        "generator" : "Khronos glTF Blender I/O v1.6.16",
        "version" : "2.0"
    },
    "scene" : 0,
    "scenes" : [
        {
            "name" : "Scene",
            "nodes" : [
                0
            ]
        }
    ],
    "nodes" : [
        {
            "mesh" : 0,
            "name" : "Cube.001",
            "scale" : [
                -31.12921714782715,
                -18.409812927246094,
                5.128130912780762
            ],
            "translation" : [
                0.8841102123260498,
                15.648627281188965,
                0
            ]
        }
    ],
    "materials" : [
        {
            "name" : "Material.002",
            "pbrMetallicRoughness" : {
                "baseColorTexture" : {
                    "index" : 0
                },
                "metallicFactor" : 0
            }
        }
    ],
    "meshes" : [
        {
            "name" : "Cube.001",
            "primitives" : [
                {
                    "attributes" : {
                        "POSITION" : 0,
                        "NORMAL" : 1,
                        "TEXCOORD_0" : 2
                    },
                    "indices" : 3,
                    "material" : 0
                }
            ]
        }
    ],
    "textures" : [
        {
            "sampler" : 0,
            "source" : 0
        }
    ],
    "images" : [
        {
            "bufferView" : 4,
            "mimeType" : "image/png",
            "name" : "leafs"
        }
    ],
    "accessors" : [
        {
            "bufferView" : 0,
            "componentType" : 5126,
            "count" : 100,
            "max" : [
                1.0290607213974,
                1,
                1
            ],
            "min" : [
                -0.9726859927177429,
                -1,
                -1
            ],
            "type" : "VEC3"
        },
        {
            "bufferView" : 1,
            "componentType" : 5126,
            "count" : 100,
            "type" : "VEC3"
        },
        {
            "bufferView" : 2,
            "componentType" : 5126,
            "count" : 100,
            "type" : "VEC2"
        },
        {
            "bufferView" : 3,
            "componentType" : 5123,
            "count" : 162,
            "type" : "SCALAR"
        }
    ],
    "bufferViews" : [
        {
            "buffer" : 0,
            "byteLength" : 1200,
            "byteOffset" : 0
        },
        {
            "buffer" : 0,
            "byteLength" : 1200,
            "byteOffset" : 1200
        },
        {
            "buffer" : 0,
            "byteLength" : 800,
            "byteOffset" : 2400
        },
        {
            "buffer" : 0,
            "byteLength" : 324,
            "byteOffset" : 3200
        },
        {
            "buffer" : 0,
            "byteLength" : 647679,
            "byteOffset" : 3524
        }
    ],
    "samplers" : [
        {
            "magFilter" : 9729,
            "minFilter" : 9987
        }
    ],
    "buffers" : [
        {
            "byteLength" : 651204,
            "uri" : "data:application/octet-stream;base64,"
        }
    ]
}
